<svg xmlns="http://www.w3.org/2000/svg" width="31.495" height="31.074" viewBox="0 0 31.495 31.074">
  <path id="icon" d="M1283.407,443.365V436.3a8.59,8.59,0,0,0-17.179,0v7.064a5.57,5.57,0,0,1-.766,2.825h18.711A5.568,5.568,0,0,1,1283.407,443.365Zm5.726,5.65H1260.5a1.413,1.413,0,1,1,0-2.825,2.844,2.844,0,0,0,2.863-2.825V436.3a11.454,11.454,0,0,1,22.906,0v7.064a2.844,2.844,0,0,0,2.863,2.825A1.413,1.413,0,1,1,1289.134,449.015Zm-10.6,4.948a4.325,4.325,0,0,1-7.43,0,1.414,1.414,0,0,1,1.239-2.122h4.953A1.414,1.414,0,0,1,1278.533,453.963Z" transform="translate(-1259.07 -425)" fill="#30385e"/>
</svg>
