<svg id="settings" xmlns="http://www.w3.org/2000/svg" width="32.479" height="35.272" viewBox="0 0 32.479 35.272">
  <path id="Form_540" data-name="Form 540" d="M15.181,35.272A4.508,4.508,0,0,1,10.7,30.752h0a1.855,1.855,0,0,0-.254-.919l-.01-.016A1.928,1.928,0,0,0,9.256,28.9a1.948,1.948,0,0,0-.5-.066,1.909,1.909,0,0,0-.971.266l-.02.011a4.435,4.435,0,0,1-3.418.407,4.5,4.5,0,0,1-2.686-2.145L.6,25.52A4.548,4.548,0,0,1,2.234,19.35a1.989,1.989,0,0,0,0-3.429h0A4.562,4.562,0,0,1,.6,9.738l.015-.025,1.12-1.861A4.473,4.473,0,0,1,5.607,5.6h.009a4.438,4.438,0,0,1,2.224.6l.016.01a1.808,1.808,0,0,0,.909.257,1.97,1.97,0,0,0,1.948-1.935V4.517a4.534,4.534,0,0,1,1.3-3.185A4.444,4.444,0,0,1,15.181,0h2.112A4.464,4.464,0,0,1,20.51,1.374a4.559,4.559,0,0,1,1.269,3.159v.083a1.862,1.862,0,0,0,.254.918l0,.005a1.929,1.929,0,0,0,2.662.7l.013-.008a4.427,4.427,0,0,1,2.227-.6h.005A4.475,4.475,0,0,1,30.827,7.9l1.047,1.838a1.284,1.284,0,0,1,.071.147,4.563,4.563,0,0,1-1.7,6.033l-.01.005a1.914,1.914,0,0,0-.7.711l-.005.009a1.976,1.976,0,0,0,.711,2.691,4.511,4.511,0,0,1,2.09,2.752,4.634,4.634,0,0,1,.15,1.162,4.546,4.546,0,0,1-.608,2.274l-.009.015-1.11,1.869a4.472,4.472,0,0,1-3.865,2.239h-.009a4.42,4.42,0,0,1-2.232-.605l0,0a2.02,2.02,0,0,0-.932-.27,1.938,1.938,0,0,0-1.373.577,1.971,1.971,0,0,0-.568,1.381v.029a4.509,4.509,0,0,1-4.485,4.512ZM9.909,26.433a4.466,4.466,0,0,1,2.71,2.105,4.417,4.417,0,0,1,.6,2.187v.014a1.973,1.973,0,0,0,1.959,1.979h2.112a1.968,1.968,0,0,0,1.959-1.969v-.01a4.54,4.54,0,0,1,1.308-3.193,4.445,4.445,0,0,1,3.16-1.323h.05a4.523,4.523,0,0,1,2.134.6l0,0a1.925,1.925,0,0,0,.975.264,1.956,1.956,0,0,0,1.7-.984l.008-.015,1.1-1.855a1.992,1.992,0,0,0,.264-.99,1.976,1.976,0,0,0-.974-1.7,4.519,4.519,0,0,1-2.09-2.751,4.607,4.607,0,0,1-.151-1.164,4.553,4.553,0,0,1,.6-2.27,4.463,4.463,0,0,1,1.636-1.653A1.983,1.983,0,0,0,29.942,12a2.006,2.006,0,0,0-.258-.98,1.072,1.072,0,0,1-.061-.119l-.985-1.729a1.95,1.95,0,0,0-1.7-.992,1.909,1.909,0,0,0-.968.261,4.441,4.441,0,0,1-2.259.619h0a4.413,4.413,0,0,1-1.12-.145A4.476,4.476,0,0,1,19.857,6.83l0,.006a4.425,4.425,0,0,1-.608-2.2V4.533A1.992,1.992,0,0,0,18.7,3.153a1.946,1.946,0,0,0-1.406-.6H15.181a1.932,1.932,0,0,0-1.378.58,1.974,1.974,0,0,0-.566,1.384v.036A4.506,4.506,0,0,1,8.754,9.018H8.741a4.3,4.3,0,0,1-2.16-.606,1.944,1.944,0,0,0-2.667.731L3.9,9.17,2.781,11.024a1.99,1.99,0,0,0,.72,2.687h0a4.558,4.558,0,0,1,0,7.851,1.974,1.974,0,0,0-.712,2.679l1.063,1.853.013.023a1.968,1.968,0,0,0,1.177.945,1.945,1.945,0,0,0,1.485-.173,4.414,4.414,0,0,1,3.385-.455Zm.633-8.8a5.7,5.7,0,1,1,5.7,5.763A5.734,5.734,0,0,1,10.542,17.636Zm2.526,0a3.176,3.176,0,1,0,3.177-3.21A3.2,3.2,0,0,0,13.068,17.636Zm14.277-2.279,0,.005,0,0Z" fill="#30385e"/>
</svg>
